<?xml version="1.0" standalone="no"?>
<!DOCTYPE svg PUBLIC "-//W3C//DTD SVG 20010904//EN"
 "http://www.w3.org/TR/2001/REC-SVG-20010904/DTD/svg10.dtd">
<svg version="1.0" xmlns="http://www.w3.org/2000/svg"
 width="400.000000pt" height="400.000000pt" viewBox="0 0 400.000000 400.000000"
 preserveAspectRatio="xMidYMid meet">

<g transform="translate(0.000000,400.000000) scale(0.100000,-0.100000)"
fill="none" stroke="none">
<path d="M2303 2346 l-28 -24 -3 -316 -3 -317 30 -29 29 -30 601 0 c425 0 607
3 625 11 44 20 47 45 44 373 l-3 308 -28 24 -28 24 -604 0 -604 0 -28 -24z
m334 -143 c3 -16 18 -75 33 -133 l26 -104 33 119 c18 66 35 126 37 133 2 8 32
12 104 12 l100 0 0 -230 0 -230 -70 0 -70 0 -1 133 -1 132 -32 -130 -32 -130
-69 0 -69 0 -32 130 -32 130 -1 -132 -1 -133 -70 0 -70 0 0 230 0 230 105 0
105 0 7 -27z m723 0 c56 -35 83 -93 88 -190 4 -74 2 -88 -21 -135 -16 -33 -41
-63 -63 -78 -35 -23 -47 -25 -186 -28 l-148 -3 0 231 0 232 148 -3 c130 -4
151 -7 182 -26z" fill="red"/>
<path d="M3180 2000 l0 -110 26 0 c16 0 39 13 61 35 33 33 35 39 30 82 -4 37
-12 54 -36 75 -17 15 -42 28 -56 28 l-25 0 0 -110z" fill="red"/>
<path d="M400 2180 l0 -60 65 0 65 0 0 -175 0 -175 70 0 70 0 0 175 0 175 65
0 65 0 0 60 0 60 -200 0 -200 0 0 -60z" fill="black"/>
<path d="M2050 2150 l0 -81 -21 20 c-65 60 -173 23 -199 -70 -25 -88 0 -207
51 -243 34 -23 110 -21 143 5 21 17 26 18 26 5 0 -13 13 -16 65 -16 l65 0 0
230 0 230 -65 0 -65 0 0 -80z m-30 -150 c46 -25 30 -135 -20 -135 -49 0 -67
109 -22 134 21 13 20 13 42 1z" fill="black"/>
<path d="M1195 2109 c-37 -10 -79 -49 -101 -91 -11 -22 -15 -50 -12 -97 4 -78
28 -119 84 -146 47 -22 139 -23 181 -2 30 16 73 61 73 77 0 4 -25 14 -56 23
-53 15 -56 15 -75 -4 -10 -10 -23 -19 -28 -19 -12 0 -41 29 -41 41 0 5 48 9
106 9 l107 0 -7 52 c-17 129 -111 193 -231 157z m93 -101 c24 -24 13 -38 -28
-38 -43 0 -45 2 -30 31 12 21 40 25 58 7z" fill="black"/>
<path d="M1626 2095 c-34 -23 -36 -23 -36 -5 0 18 -7 20 -70 20 l-70 0 0 -170
0 -170 70 0 69 0 3 108 c3 107 3 107 28 107 25 0 25 0 28 -107 l3 -108 69 0
70 0 0 141 c0 77 -5 149 -10 160 -13 23 -61 49 -93 49 -13 0 -41 -11 -61 -25z" fill="black"/>
<path d="M810 1940 l0 -170 70 0 70 0 0 90 c0 78 3 93 21 111 15 15 30 20 55
17 l34 -4 0 64 0 65 -36 -6 c-20 -3 -45 -14 -55 -23 -18 -16 -19 -16 -19 4 0
20 -5 22 -70 22 l-70 0 0 -170z" fill="black"/>
</g>
</svg>
