<?xml version="1.0" standalone="no"?>
<!DOCTYPE svg PUBLIC "-//W3C//DTD SVG 20010904//EN"
 "http://www.w3.org/TR/2001/REC-SVG-20010904/DTD/svg10.dtd">
<svg version="1.0" xmlns="http://www.w3.org/2000/svg"
 width="250.000000pt" height="171.000000pt" viewBox="0 0 250.000000 171.000000"
 preserveAspectRatio="xMidYMid meet">

<g transform="translate(0.000000,171.000000) scale(0.100000,-0.100000)"
fill="none" stroke="none">
<path d="M0 855 l0 -855 535 0 535 0 0 99 0 99 119 4 c102 3 122 6 141 23 49
44 50 53 50 550 l0 465 110 0 111 0 -3 -507 -3 -508 -24 -48 c-30 -61 -70
-101 -135 -135 -47 -24 -64 -27 -206 -32 -85 -4 166 -7 558 -8 l712 -2 0 328
c-1 323 -1 326 -18 277 -54 -156 -143 -226 -312 -245 -221 -25 -364 39 -437
195 l-28 60 -3 313 -3 312 110 0 111 0 0 -269 c0 -166 4 -281 11 -298 50 -134
242 -151 314 -29 25 43 25 43 25 319 l0 277 115 0 115 0 0 235 0 235 -497 -1
c-349 -1 -487 -4 -463 -11 89 -25 147 -111 137 -204 -3 -30 -15 -70 -27 -89
-63 -102 -227 -116 -303 -25 l-27 32 -21 -26 c-57 -72 -190 -88 -263 -33 -122
93 -92 291 51 342 33 12 -36 14 -524 15 l-563 0 0 -855z m284 313 c104 -229
219 -468 225 -468 4 0 63 120 133 268 l127 267 116 3 c72 2 116 -1 113 -7 -1
-5 -88 -199 -193 -430 l-190 -421 -109 2 -110 3 -192 420 c-106 231 -193 423
-194 428 0 4 54 7 120 7 l121 0 33 -72z m986 -358 l0 -430 -110 0 -110 0 0
430 0 430 110 0 110 0 0 -430z" fill="#00C7B2"/>
<path d="M1217 1694 c23 -9 55 -30 71 -49 l29 -33 35 35 c19 19 52 40 74 48
37 13 30 14 -106 14 -141 -1 -144 -1 -103 -15z" fill="#00C7B2"/>
</g>
</svg>
