<?xml version="1.0" standalone="no"?>
<!DOCTYPE svg PUBLIC "-//W3C//DTD SVG 20010904//EN"
 "http://www.w3.org/TR/2001/REC-SVG-20010904/DTD/svg10.dtd">
<svg version="1.0" xmlns="http://www.w3.org/2000/svg"
 width="500.000000pt" height="500.000000pt" viewBox="0 0 500.000000 500.000000"
 preserveAspectRatio="xMidYMid meet">

<g transform="translate(0.000000,500.000000) scale(0.100000,-0.100000)"
fill="none" stroke="none">
<path d="M2570 2793 l0 -938 876 0 876 0 -7 44 c-11 76 -45 193 -86 296 -158
405 -479 710 -940 893 -78 32 -243 82 -266 82 -10 0 -13 -80 -13 -405 l0 -405
130 0 130 0 0 250 c0 138 3 250 8 250 4 0 48 -21 99 -46 188 -95 384 -268 498
-439 52 -77 125 -221 125 -244 0 -8 -176 -11 -580 -11 l-580 0 0 676 c0 638 1
675 18 670 9 -3 40 -8 67 -11 28 -4 104 -20 170 -35 711 -167 1193 -622 1399
-1320 30 -103 62 -260 71 -357 l7 -73 -1001 0 -1001 0 0 -130 0 -130 1156 0
1155 0 -6 73 c-43 494 -250 1028 -559 1440 -101 134 -158 197 -261 286 -250
215 -527 353 -885 441 -167 40 -448 79 -577 80 l-23 0 0 -937z" fill="#257f79"/>
<path d="M2295 3713 c-70 -6 -257 -43 -370 -73 -236 -62 -462 -153 -660 -263
-553 -309 -837 -644 -1022 -1207 -19 -58 -38 -123 -42 -145 -5 -22 -16 -74
-24 -115 -27 -131 -57 -374 -57 -462 l0 -28 935 0 935 0 0 871 0 872 -47 -6
c-73 -9 -216 -53 -329 -101 -347 -149 -603 -401 -785 -772 -53 -110 -149 -372
-149 -409 0 -13 49 -15 400 -13 l401 3 2 123 2 122 -252 0 c-139 0 -253 4
-253 8 0 22 102 208 155 281 74 104 208 240 299 305 78 56 250 146 278 146 17
0 18 -24 18 -585 l0 -585 -676 0 -677 0 7 61 c25 218 118 505 238 729 140 262
344 481 603 645 68 43 249 135 327 166 162 64 394 122 546 135 l82 7 0 -1002
0 -1001 125 0 125 0 0 1150 0 1150 -47 -2 c-27 -1 -66 -3 -88 -5z" fill="#8a8988"/>
</g>
</svg>
