<svg width="82" height="28" viewBox="0 0 82 28" fill="none" xmlns="http://www.w3.org/2000/svg">
<path d="M14.0426 28C21.6851 28 27.883 21.8071 27.883 14.173C27.883 6.53888 21.6851 0.345947 14.0426 0.345947C6.40011 0.345947 0.202148 6.53888 0.202148 14.1812C0.202148 21.7989 6.40011 28 14.0426 28Z" fill="white"/>
<path d="M26.1942 20.2012C27.1823 18.2721 27.6944 16.1423 27.6891 13.9836C27.6891 6.45653 21.5835 0.345947 14.0418 0.345947C6.50011 0.345947 0.394531 6.45653 0.394531 13.9836C0.394531 18.3153 2.41013 22.1694 5.5595 24.673C5.83664 22.2518 6.01301 20.1106 5.93742 19.74C5.45872 17.4836 4.10659 17.253 5.01361 13.2836C6.92003 5.06476 13.0592 4.00241 16.3681 4.77653C18.9548 5.37771 20.9452 7.39535 22.079 10.7965C23.2212 14.1895 22.9608 15.9436 22.5409 17.0883C22.4149 17.4259 22.4317 17.4012 24.187 18.6777C24.9092 19.213 25.5727 19.6906 26.2026 20.193L26.1942 20.2012Z" fill="url(#paint0_linear)"/>
<path d="M5.5177 25.0353C5.4372 25.0344 5.35971 25.0051 5.29934 24.9529C1.94001 22.2764 0 18.2823 0 13.9835C0 6.26705 6.28194 0 14 0C21.7097 0 28 6.27529 28 13.9835C28 16.2317 27.4793 18.3812 26.4547 20.3659C26.4313 20.4149 26.3962 20.4578 26.3523 20.4907C26.3085 20.5237 26.2572 20.5458 26.2028 20.5553C26.1525 20.5633 26.1011 20.5609 26.0519 20.5481C26.0027 20.5354 25.9568 20.5125 25.9172 20.4812C25.3629 20.0364 24.7834 19.6082 24.1536 19.147L23.4901 18.6694C23.07 18.3845 22.6689 18.0737 22.2891 17.7388C22.0036 17.4423 22.0624 17.1953 22.138 16.9812C22.4991 16.0259 22.835 14.3459 21.6845 10.9282C20.6095 7.71646 18.7199 5.71529 16.2256 5.13058C15.4277 4.94941 12.6395 4.47176 9.84283 6.2094C7.60048 7.6094 6.06359 10.0141 5.29934 13.3576C4.69466 15.9682 5.10618 16.8659 5.58488 17.8953C5.80324 18.3729 6.05519 18.9247 6.21476 19.6659C6.32394 20.2094 5.9964 23.3717 5.83683 24.7059C5.82994 24.7686 5.80606 24.8284 5.76767 24.8791C5.72928 24.9298 5.67777 24.9695 5.61848 24.9941C5.60168 25.0188 5.55969 25.027 5.5177 25.027V25.0353ZM14 0.699999C6.66827 0.708234 0.697061 6.66234 0.697061 13.9917C0.697061 17.8541 2.34313 21.4694 5.23215 23.9894C5.5093 21.5435 5.59328 20.0529 5.55129 19.8223C5.41692 19.1635 5.19016 18.6694 4.96341 18.2C4.45951 17.0964 3.97241 16.0588 4.63587 13.2094C5.45051 9.66822 7.08818 7.12352 9.5069 5.61646C11.5566 4.34669 14.0363 3.92612 16.4019 4.44705C19.1482 5.09764 21.2142 7.24705 22.3731 10.7059C23.5909 14.3459 23.213 16.1741 22.8182 17.2364V17.2612C22.9274 17.3929 23.3305 17.6894 23.91 18.1094L24.5819 18.5953C25.0858 18.9576 25.5645 19.3117 26.0264 19.6659C26.8662 17.8953 27.3029 15.9847 27.3029 13.9917C27.2945 6.67058 21.3317 0.708234 14 0.708234V0.699999Z" fill="black"/>
<path d="M15.2672 17.0469C14.9229 17.0469 14.5954 16.7175 14.251 16.0175C13.9571 15.4328 13.6715 14.6422 13.4196 13.7281C13.1676 12.7893 13.0669 11.8834 13.0837 10.8705C13.1173 9.75045 13.3944 9.37986 13.4868 9.28928C13.5372 9.23986 14.4946 8.29281 16.191 8.59751C17.8707 8.90222 17.9211 9.8081 17.9547 10.3434L17.9631 10.4834C18.0639 11.7022 17.0225 15.5481 16.0063 16.6599C15.7543 16.9316 15.5108 17.0469 15.2672 17.0469ZM13.9991 9.76692C13.9655 9.82457 13.8143 10.121 13.7975 10.8952C13.7723 11.8422 13.8815 12.6904 14.0999 13.5469C14.587 15.3669 15.1077 16.1987 15.2924 16.3469C15.4772 16.2646 15.9811 15.6387 16.5438 13.9587C16.9973 12.6163 17.2996 11.1587 17.2408 10.5657L17.2324 10.401C17.2072 9.92339 17.182 9.51163 16.0567 9.30575C15.7008 9.22009 15.3294 9.21718 14.9721 9.29725C14.6149 9.37732 14.2817 9.53816 13.9991 9.76692ZM13.9907 9.78339C13.9907 9.78339 13.9823 9.78339 13.9907 9.78339C13.9823 9.78339 13.9907 9.78339 13.9907 9.78339ZM11.6559 21.8398H11.6391C8.78372 21.7163 6.70933 20.794 5.47478 19.0893C4.93195 18.2936 4.56807 17.3937 4.40734 16.4495C4.24661 15.5052 4.2927 14.5382 4.54257 13.6128C4.59296 13.4316 4.78612 13.3163 4.97928 13.3657C5.15564 13.4234 5.27322 13.6128 5.22283 13.8022C5.00627 14.6262 4.96761 15.4855 5.10934 16.3251C5.25107 17.1646 5.57005 17.9659 6.04586 18.6775C7.14604 20.201 9.03567 21.0328 11.6727 21.1481C11.8575 21.1481 12.0171 21.3128 12.0087 21.5104C11.9919 21.6916 11.8407 21.8398 11.6559 21.8398Z" fill="black"/>
<path d="M3.4177 7.77405H25.6984C25.6984 7.77405 23.7248 11.1917 20.5083 11.4305C18.7026 11.5705 17.3589 9.9811 16.6031 9.33052C16.0404 8.8364 15.5113 8.72934 14.2851 9.33052C13.4537 9.74228 13.4873 10.5493 11.5389 11.2246C11.3205 11.307 8.03677 12.1552 5.8868 10.6317C5.56767 10.4093 4.57666 9.79993 3.8964 8.90228C3.24133 8.02111 3.4261 7.79052 3.4093 7.77405H3.4177Z" fill="black"/>
<path d="M36.0093 15.025C36.0093 12.1155 37.8976 10.05 40.4682 10.05C43.0295 10.05 44.927 12.1155 44.927 15.025C44.927 17.9346 43.0295 19.991 40.4682 19.991C37.8976 19.991 36 17.9256 36 15.025H36.0093ZM44.0577 15.025C44.0577 12.5645 42.5153 10.8942 40.4682 10.8942C38.4117 10.8942 36.8787 12.5645 36.8787 15.025C36.8787 17.4856 38.4117 19.1559 40.4682 19.1559C42.5247 19.1559 44.0577 17.4856 44.0577 15.025ZM55.518 6V19.9192H54.6767V17.6113C54.3861 18.3143 53.8822 18.9171 53.2304 19.3415C52.5787 19.7659 51.8091 19.9922 51.0217 19.991C48.5072 19.991 46.6096 17.9525 46.6096 15.025C46.6096 12.0795 48.5072 10.05 51.0217 10.05C52.6109 10.05 53.9476 10.9121 54.6673 12.3938V6H55.518ZM54.6673 15.025C54.6673 12.5645 53.125 10.8942 51.0685 10.8942C49.012 10.8942 47.479 12.5645 47.479 15.025C47.479 17.4856 49.0213 19.1559 51.0685 19.1559C53.125 19.1559 54.6673 17.4856 54.6673 15.025ZM57.8082 18.7338L58.2101 17.9885C59.0941 18.7485 60.2394 19.1675 61.4257 19.1648C63.2953 19.1648 64.0524 18.4375 64.0524 17.3329C64.0524 14.4772 58.1353 16.5786 58.1353 12.7351C58.1353 11.2534 59.2664 10.05 61.5285 10.05C62.6503 10.05 63.8842 10.4272 64.5852 11.0109L64.1926 11.7563C63.4313 11.1735 62.4832 10.8625 61.5099 10.8762C59.7618 10.8762 58.986 11.6665 58.986 12.7171C58.986 15.6626 64.9124 13.5792 64.9124 17.3149C64.9124 18.9044 63.6598 19.991 61.3883 19.991C59.9207 19.991 58.5092 19.4522 57.8082 18.7338ZM66.4828 19.1918C66.4828 18.7428 66.81 18.4015 67.2026 18.4015C67.5952 18.4015 67.9224 18.7338 67.9224 19.1918C67.9224 19.6408 67.5952 20 67.2026 20C66.81 20 66.4828 19.6408 66.4828 19.1918ZM77.3448 13.7139V19.9192H76.5223V18.177C75.9614 19.2996 74.8677 19.991 73.3066 19.991C71.3062 19.991 70.091 18.8685 70.091 17.2072C70.091 15.7165 70.951 14.4593 73.4282 14.4593H76.4942V13.678C76.4942 11.855 75.5875 10.8762 73.8395 10.8762C72.6056 10.8762 71.5025 11.3881 70.7547 12.1155L70.3341 11.4419C71.2859 10.5426 72.5699 10.0421 73.9049 10.05C76.111 10.05 77.3448 11.2893 77.3448 13.7139ZM76.4942 17.0366V15.1956H73.4469C71.596 15.1956 70.951 16.0398 70.951 17.1713C70.951 18.4375 71.8578 19.2277 73.4282 19.2277C74.9331 19.2277 75.9801 18.4375 76.4942 17.0276V17.0366ZM80.5978 6.99679C80.5978 6.58371 80.9063 6.2245 81.2989 6.2245C81.6915 6.2245 82 6.56575 82 6.97883C82 7.40988 81.6915 7.74214 81.2989 7.74214C80.9063 7.74214 80.5978 7.40988 80.5978 6.99679ZM80.8783 10.1309H81.7196V19.9192H80.8783V10.1309Z" fill="#201600"/>
<defs>
<linearGradient id="paint0_linear" x1="7.21397" y1="2.17418" x2="19.758" y2="23.9162" gradientUnits="userSpaceOnUse">
<stop stop-color="#EF645E"/>
<stop offset="1" stop-color="#EB1E6F"/>
</linearGradient>
</defs>
</svg>
