 <svg  version="1.0" xmlns="http://www.w3.org/2000/svg"  width="600.000000pt" height="600.000000pt" viewBox="0 0 600.000000 600.000000"  preserveAspectRatio="xMidYMid meet">  <g transform="translate(0.000000,600.000000) scale(0.100000,-0.100000)" fill="#f14b07" stroke="none"> <path d="M2745 4900 c-44 -3 -90 -11 -102 -18 -12 -7 -33 -12 -47 -12 -14 0 -26 -4 -26 -9 0 -5 -10 -13 -22 -16 -30 -9 -93 -70 -124 -117 -43 -67 -30 -247 24 -345 7 -12 12 -30 12 -41 0 -11 7 -25 15 -32 8 -7 15 -19 15 -27 0 -8 7 -21 15 -29 8 -9 15 -24 15 -35 0 -10 4 -19 8 -19 4 0 20 -24 35 -52 40 -80 225 -304 299 -364 206 -165 233 -181 374 -227 54 -18 189 -23 198 -8 3 5 18 12 32 15 45 12 157 104 178 147 3 8 15 28 26 44 11 17 25 42 31 58 6 15 15 27 20 27 5 0 9 9 9 19 0 11 5 32 12 48 20 46 40 164 41 233 2 134 -47 273 -138 393 -39 52 -138 147 -184 177 -13 8 -41 27 -62 43 -21 15 -41 27 -43 27 -3 0 -33 13 -68 28 -83 38 -123 52 -178 63 -25 5 -56 13 -70 18 -34 13 -197 19 -295 11z"/> <path d="M1820 4091 c-30 -3 -65 -12 -77 -19 -12 -7 -30 -12 -41 -12 -11 0 -25 -7 -32 -15 -7 -8 -23 -15 -36 -15 -13 0 -24 -4 -24 -9 0 -5 -9 -13 -20 -16 -65 -21 -228 -163 -314 -275 -74 -96 -153 -248 -171 -330 -4 -19 -12 -40 -17 -47 -5 -7 -10 -73 -10 -148 0 -112 2 -139 16 -154 9 -10 16 -24 16 -33 0 -19 96 -108 116 -108 8 0 25 -7 38 -15 20 -13 52 -15 187 -12 90 1 193 9 229 16 79 16 251 68 288 87 15 8 32 14 39 14 15 0 134 61 151 78 7 6 18 12 23 12 16 0 120 66 160 103 10 9 22 17 26 17 3 0 35 29 70 65 67 69 112 146 137 233 13 47 13 60 0 120 -17 70 -40 127 -61 150 -7 7 -13 18 -13 23 0 5 -30 41 -67 79 -66 67 -234 180 -268 180 -9 0 -29 7 -45 15 -33 17 -216 27 -300 16z"/> <path d="M4317 4030 c-81 -41 -157 -102 -268 -216 -99 -103 -209 -243 -209 -268 0 -8 -5 -18 -11 -21 -5 -4 -15 -17 -20 -28 -5 -12 -21 -42 -34 -66 -14 -24 -25 -50 -25 -56 0 -7 -6 -18 -14 -24 -8 -6 -16 -22 -19 -34 -3 -12 -15 -49 -27 -82 -43 -119 -74 -331 -52 -358 5 -7 13 -30 16 -51 4 -21 15 -51 24 -65 28 -44 106 -121 123 -121 9 0 22 -7 29 -15 7 -8 20 -15 29 -15 10 0 26 -7 37 -15 10 -8 31 -15 46 -15 14 0 55 -7 89 -16 69 -18 134 -15 261 9 80 15 209 72 251 111 13 12 36 32 53 46 56 47 184 241 184 279 0 5 5 22 12 38 32 77 41 144 45 337 3 163 1 206 -12 238 -8 21 -15 52 -15 68 0 16 -4 31 -9 35 -5 3 -12 19 -16 35 -4 16 -17 49 -31 72 -13 24 -28 52 -33 63 -11 24 -115 125 -153 148 -20 12 -50 17 -110 17 -71 -1 -91 -5 -141 -30z"/> <path d="M2095 2755 c-16 -8 -40 -14 -52 -15 -23 0 -96 -37 -176 -87 -44 -28 -157 -131 -157 -143 0 -5 -12 -21 -27 -38 -26 -28 -36 -44 -75 -132 -22 -47 -48 -187 -48 -254 0 -29 7 -75 15 -102 8 -27 15 -65 15 -84 0 -19 7 -44 15 -54 8 -11 15 -28 15 -38 0 -10 4 -26 9 -36 6 -9 20 -39 33 -67 42 -93 135 -223 218 -305 55 -55 124 -110 138 -110 5 0 12 -7 16 -15 3 -8 14 -15 25 -15 11 0 22 -4 25 -9 21 -33 190 -78 253 -67 21 3 54 9 73 12 19 4 51 20 71 35 39 31 109 139 109 168 0 10 7 24 15 31 8 7 15 27 15 44 1 17 7 49 15 71 8 22 15 57 15 77 0 21 7 75 17 120 15 76 15 94 -1 262 -9 100 -24 201 -32 226 -8 25 -14 55 -14 66 0 12 -7 35 -15 50 -8 16 -15 38 -15 50 0 11 -7 29 -15 40 -8 10 -15 29 -15 40 0 12 -7 27 -15 34 -8 7 -15 19 -15 27 0 8 -21 42 -47 76 -47 63 -120 121 -167 133 -15 3 -29 10 -32 15 -8 14 -156 9 -189 -6z"/> <path d="M3300 2388 c-78 -11 -169 -37 -191 -55 -8 -7 -20 -13 -25 -13 -12 0 -78 -61 -87 -80 -4 -8 -17 -31 -29 -50 -34 -55 -48 -168 -36 -280 6 -52 14 -104 18 -115 41 -110 55 -142 66 -156 8 -8 14 -23 14 -33 0 -25 167 -188 220 -215 25 -12 52 -26 60 -30 70 -40 217 -71 334 -71 101 0 246 22 303 47 17 7 36 13 42 13 13 0 134 53 181 79 8 5 32 17 53 27 20 10 57 37 80 59 24 22 54 49 68 61 41 36 73 78 97 130 13 27 27 57 33 66 5 10 9 44 9 76 0 74 -37 149 -107 216 -51 49 -208 149 -283 180 -81 34 -135 57 -150 65 -9 5 -35 12 -58 16 -23 4 -44 11 -48 16 -3 5 -21 9 -39 9 -19 0 -52 6 -72 14 -41 15 -257 37 -338 35 -27 -1 -79 -6 -115 -11z"/> </g> </svg> 